<mxfile host="app.diagrams.net" agent="Mozilla/5.0 (Windows NT 10.0; Win64; x64) AppleWebKit/537.36 (KHTML, like Gecko) Chrome/131.0.0.0 Safari/537.36" version="25.0.3">
  <diagram name="Page-1" id="rQX1YtQDC70RT5PG3sAJ">
    <mxGraphModel dx="2873" dy="1110" grid="1" gridSize="10" guides="1" tooltips="1" connect="1" arrows="1" fold="1" page="1" pageScale="1" pageWidth="850" pageHeight="1100" math="0" shadow="0">
      <root>
        <mxCell id="0" />
        <mxCell id="1" parent="0" />
        <mxCell id="to3WtLk7SZaPc5Sqz7QV-4" value="" style="edgeStyle=orthogonalEdgeStyle;rounded=0;orthogonalLoop=1;jettySize=auto;html=1;exitX=0.5;exitY=1;exitDx=0;exitDy=0;entryX=0.5;entryY=0;entryDx=0;entryDy=0;fontSize=15;" parent="1" source="to3WtLk7SZaPc5Sqz7QV-1" target="to3WtLk7SZaPc5Sqz7QV-12" edge="1">
          <mxGeometry relative="1" as="geometry">
            <mxPoint x="-100" y="270" as="targetPoint" />
            <Array as="points">
              <mxPoint y="230" />
              <mxPoint x="-180" y="230" />
            </Array>
          </mxGeometry>
        </mxCell>
        <mxCell id="to3WtLk7SZaPc5Sqz7QV-7" value="" style="edgeStyle=orthogonalEdgeStyle;rounded=0;orthogonalLoop=1;jettySize=auto;html=1;entryX=0.5;entryY=0;entryDx=0;entryDy=0;exitX=0.5;exitY=1;exitDx=0;exitDy=0;fontSize=15;" parent="1" source="to3WtLk7SZaPc5Sqz7QV-1" target="to3WtLk7SZaPc5Sqz7QV-13" edge="1">
          <mxGeometry relative="1" as="geometry">
            <mxPoint x="40.066666666666606" y="270" as="targetPoint" />
            <Array as="points">
              <mxPoint y="210" />
              <mxPoint y="210" />
            </Array>
          </mxGeometry>
        </mxCell>
        <mxCell id="to3WtLk7SZaPc5Sqz7QV-9" value="" style="edgeStyle=orthogonalEdgeStyle;rounded=0;orthogonalLoop=1;jettySize=auto;html=1;entryX=0.5;entryY=0;entryDx=0;entryDy=0;fontSize=15;" parent="1" target="to3WtLk7SZaPc5Sqz7QV-14" edge="1">
          <mxGeometry relative="1" as="geometry">
            <mxPoint y="190" as="sourcePoint" />
            <mxPoint x="200.0666666666666" y="270" as="targetPoint" />
            <Array as="points">
              <mxPoint y="230" />
              <mxPoint x="200" y="230" />
            </Array>
          </mxGeometry>
        </mxCell>
        <mxCell id="to3WtLk7SZaPc5Sqz7QV-1" value="Prediksi Curah Hujan" style="rounded=0;whiteSpace=wrap;html=1;fontSize=15;" parent="1" vertex="1">
          <mxGeometry x="-60" y="130" width="120" height="60" as="geometry" />
        </mxCell>
        <mxCell id="to3WtLk7SZaPc5Sqz7QV-11" value="CHIRPS" style="rounded=1;whiteSpace=wrap;html=1;fontSize=15;" parent="1" vertex="1">
          <mxGeometry x="285" y="270" width="120" height="60" as="geometry" />
        </mxCell>
        <mxCell id="to3WtLk7SZaPc5Sqz7QV-12" value="Curah Hujan" style="rounded=1;whiteSpace=wrap;html=1;fontSize=15;" parent="1" vertex="1">
          <mxGeometry x="-240" y="280" width="120" height="60" as="geometry" />
        </mxCell>
        <mxCell id="to3WtLk7SZaPc5Sqz7QV-13" value="Ketinggian Permukaan Air" style="rounded=1;whiteSpace=wrap;html=1;fontSize=15;" parent="1" vertex="1">
          <mxGeometry x="-60" y="280" width="120" height="60" as="geometry" />
        </mxCell>
        <mxCell id="to3WtLk7SZaPc5Sqz7QV-14" value="Debit Aliran Sungai" style="rounded=1;whiteSpace=wrap;html=1;fontSize=15;" parent="1" vertex="1">
          <mxGeometry x="140" y="280" width="120" height="60" as="geometry" />
        </mxCell>
        <mxCell id="to3WtLk7SZaPc5Sqz7QV-17" value="" style="edgeStyle=orthogonalEdgeStyle;rounded=0;orthogonalLoop=1;jettySize=auto;html=1;exitX=0.5;exitY=1;exitDx=0;exitDy=0;entryX=0.5;entryY=0;entryDx=0;entryDy=0;entryPerimeter=0;fontSize=15;" parent="1" source="to3WtLk7SZaPc5Sqz7QV-12" edge="1">
          <mxGeometry relative="1" as="geometry">
            <mxPoint x="60" y="400" as="sourcePoint" />
            <mxPoint y="670" as="targetPoint" />
            <Array as="points">
              <mxPoint x="-180" y="370" />
              <mxPoint y="370" />
            </Array>
          </mxGeometry>
        </mxCell>
        <mxCell id="to3WtLk7SZaPc5Sqz7QV-18" value="" style="edgeStyle=orthogonalEdgeStyle;rounded=0;orthogonalLoop=1;jettySize=auto;html=1;exitX=0.5;exitY=1;exitDx=0;exitDy=0;entryX=0.5;entryY=0;entryDx=0;entryDy=0;fontSize=15;" parent="1" source="to3WtLk7SZaPc5Sqz7QV-13" target="vjmSQW3fSpuoPHMXwD8e-6" edge="1">
          <mxGeometry relative="1" as="geometry">
            <mxPoint x="-170" y="390" as="sourcePoint" />
            <mxPoint y="670" as="targetPoint" />
            <Array as="points" />
          </mxGeometry>
        </mxCell>
        <mxCell id="to3WtLk7SZaPc5Sqz7QV-22" value="EDA" style="shape=parallelogram;perimeter=parallelogramPerimeter;whiteSpace=wrap;html=1;fixedSize=1;fontSize=15;" parent="1" vertex="1">
          <mxGeometry x="-60" y="400" width="120" height="60" as="geometry" />
        </mxCell>
        <mxCell id="to3WtLk7SZaPc5Sqz7QV-23" value="Geometri Sungai" style="rounded=1;whiteSpace=wrap;html=1;fontSize=15;" parent="1" vertex="1">
          <mxGeometry x="490" y="270" width="120" height="60" as="geometry" />
        </mxCell>
        <mxCell id="to3WtLk7SZaPc5Sqz7QV-24" value="Debit Sungai" style="rounded=1;whiteSpace=wrap;html=1;fontSize=15;" parent="1" vertex="1">
          <mxGeometry x="710" y="270" width="120" height="60" as="geometry" />
        </mxCell>
        <mxCell id="to3WtLk7SZaPc5Sqz7QV-26" value="&lt;i style=&quot;font-size: 15px;&quot;&gt;Deep Interview&lt;/i&gt;" style="rounded=0;whiteSpace=wrap;html=1;fontSize=15;" parent="1" vertex="1">
          <mxGeometry x="-440" y="130" width="120" height="60" as="geometry" />
        </mxCell>
        <mxCell id="to3WtLk7SZaPc5Sqz7QV-29" value="Mitigasi &amp;amp; Kesiapsiagaan&lt;div&gt;Masyarakat&lt;/div&gt;" style="strokeWidth=2;html=1;shape=mxgraph.flowchart.terminator;whiteSpace=wrap;fontSize=15;" parent="1" vertex="1">
          <mxGeometry x="-250" y="780" width="120" height="60" as="geometry" />
        </mxCell>
        <mxCell id="to3WtLk7SZaPc5Sqz7QV-30" value="Pemodelan Limpasan Banjir" style="rounded=0;whiteSpace=wrap;html=1;fontSize=15;" parent="1" vertex="1">
          <mxGeometry x="490" y="130" width="120" height="60" as="geometry" />
        </mxCell>
        <mxCell id="to3WtLk7SZaPc5Sqz7QV-33" value="" style="edgeStyle=orthogonalEdgeStyle;rounded=0;orthogonalLoop=1;jettySize=auto;html=1;entryX=0.5;entryY=0;entryDx=0;entryDy=0;exitX=0.5;exitY=1;exitDx=0;exitDy=0;fontSize=15;" parent="1" edge="1" source="to3WtLk7SZaPc5Sqz7QV-32">
          <mxGeometry relative="1" as="geometry">
            <mxPoint x="344.17" y="330" as="sourcePoint" />
            <mxPoint x="344.17" y="420" as="targetPoint" />
            <Array as="points">
              <mxPoint x="344.17" y="350" />
              <mxPoint x="344.17" y="350" />
            </Array>
          </mxGeometry>
        </mxCell>
        <mxCell id="to3WtLk7SZaPc5Sqz7QV-37" value="" style="edgeStyle=orthogonalEdgeStyle;rounded=0;orthogonalLoop=1;jettySize=auto;html=1;exitX=0.5;exitY=1;exitDx=0;exitDy=0;fontSize=15;" parent="1" source="to3WtLk7SZaPc5Sqz7QV-14" edge="1">
          <mxGeometry relative="1" as="geometry">
            <mxPoint x="200" y="340" as="sourcePoint" />
            <mxPoint y="400" as="targetPoint" />
            <Array as="points">
              <mxPoint x="200" y="370" />
              <mxPoint y="370" />
            </Array>
          </mxGeometry>
        </mxCell>
        <mxCell id="to3WtLk7SZaPc5Sqz7QV-36" value="Normalisasi&amp;nbsp;&lt;div style=&quot;font-size: 15px;&quot;&gt;&amp;amp; Split Data&amp;nbsp;&lt;/div&gt;" style="shape=parallelogram;perimeter=parallelogramPerimeter;whiteSpace=wrap;html=1;fixedSize=1;fontSize=15;" parent="1" vertex="1">
          <mxGeometry x="-60" y="480" width="140" height="60" as="geometry" />
        </mxCell>
        <mxCell id="to3WtLk7SZaPc5Sqz7QV-38" value="Uji Stationer &amp;amp; Konsistensi&lt;div style=&quot;font-size: 15px;&quot;&gt;Data&lt;/div&gt;" style="shape=parallelogram;perimeter=parallelogramPerimeter;whiteSpace=wrap;html=1;fixedSize=1;fontSize=15;" parent="1" vertex="1">
          <mxGeometry x="-80" y="570" width="220" height="60" as="geometry" />
        </mxCell>
        <mxCell id="to3WtLk7SZaPc5Sqz7QV-39" value="Distribusi Data" style="rounded=1;whiteSpace=wrap;html=1;fontSize=15;" parent="1" vertex="1">
          <mxGeometry x="-270" y="400" width="160" height="60" as="geometry" />
        </mxCell>
        <mxCell id="to3WtLk7SZaPc5Sqz7QV-40" value="" style="edgeStyle=orthogonalEdgeStyle;rounded=0;orthogonalLoop=1;jettySize=auto;html=1;exitX=0;exitY=0.5;exitDx=0;exitDy=0;entryX=1;entryY=0.5;entryDx=0;entryDy=0;fontSize=15;" parent="1" source="to3WtLk7SZaPc5Sqz7QV-22" target="to3WtLk7SZaPc5Sqz7QV-39" edge="1">
          <mxGeometry relative="1" as="geometry">
            <mxPoint x="-240" y="480" as="sourcePoint" />
            <mxPoint x="-200" y="530" as="targetPoint" />
            <Array as="points">
              <mxPoint x="-100" y="430" />
              <mxPoint x="-100" y="430" />
            </Array>
          </mxGeometry>
        </mxCell>
        <mxCell id="to3WtLk7SZaPc5Sqz7QV-41" value="Stabilitas Data" style="rounded=1;whiteSpace=wrap;html=1;fontSize=15;" parent="1" vertex="1">
          <mxGeometry x="-280" y="480" width="170" height="60" as="geometry" />
        </mxCell>
        <mxCell id="to3WtLk7SZaPc5Sqz7QV-42" value="" style="edgeStyle=orthogonalEdgeStyle;rounded=0;orthogonalLoop=1;jettySize=auto;html=1;exitX=0;exitY=0.5;exitDx=0;exitDy=0;entryX=1;entryY=0.5;entryDx=0;entryDy=0;fontSize=15;" parent="1" target="to3WtLk7SZaPc5Sqz7QV-41" edge="1">
          <mxGeometry relative="1" as="geometry">
            <mxPoint x="-50" y="510" as="sourcePoint" />
            <mxPoint x="-200" y="610" as="targetPoint" />
            <Array as="points">
              <mxPoint x="-100" y="510" />
              <mxPoint x="-100" y="510" />
            </Array>
          </mxGeometry>
        </mxCell>
        <mxCell id="to3WtLk7SZaPc5Sqz7QV-43" value="Evaluasi Perubahan Tren Data" style="rounded=1;whiteSpace=wrap;html=1;fontSize=15;" parent="1" vertex="1">
          <mxGeometry x="-330" y="570" width="220" height="60" as="geometry" />
        </mxCell>
        <mxCell id="to3WtLk7SZaPc5Sqz7QV-44" value="" style="edgeStyle=orthogonalEdgeStyle;rounded=0;orthogonalLoop=1;jettySize=auto;html=1;entryX=1;entryY=0.5;entryDx=0;entryDy=0;fontSize=15;" parent="1" target="to3WtLk7SZaPc5Sqz7QV-43" edge="1">
          <mxGeometry relative="1" as="geometry">
            <mxPoint x="-70" y="600" as="sourcePoint" />
            <mxPoint x="-200" y="700" as="targetPoint" />
            <Array as="points">
              <mxPoint x="-100" y="600" />
              <mxPoint x="-100" y="600" />
            </Array>
          </mxGeometry>
        </mxCell>
        <mxCell id="to3WtLk7SZaPc5Sqz7QV-45" value="" style="edgeStyle=orthogonalEdgeStyle;rounded=0;orthogonalLoop=1;jettySize=auto;html=1;entryX=0.5;entryY=0;entryDx=0;entryDy=0;exitX=0.5;exitY=1;exitDx=0;exitDy=0;fontSize=15;" parent="1" source="to3WtLk7SZaPc5Sqz7QV-30" target="to3WtLk7SZaPc5Sqz7QV-24" edge="1">
          <mxGeometry relative="1" as="geometry">
            <mxPoint x="540" y="190" as="sourcePoint" />
            <mxPoint x="740" y="280" as="targetPoint" />
            <Array as="points">
              <mxPoint x="550" y="230" />
              <mxPoint x="770" y="230" />
            </Array>
          </mxGeometry>
        </mxCell>
        <mxCell id="to3WtLk7SZaPc5Sqz7QV-46" value="" style="edgeStyle=orthogonalEdgeStyle;rounded=0;orthogonalLoop=1;jettySize=auto;html=1;entryX=0.5;entryY=0;entryDx=0;entryDy=0;fontSize=15;" parent="1" target="to3WtLk7SZaPc5Sqz7QV-23" edge="1">
          <mxGeometry relative="1" as="geometry">
            <mxPoint x="550" y="190" as="sourcePoint" />
            <mxPoint x="710" y="280" as="targetPoint" />
            <Array as="points">
              <mxPoint x="550" y="240" />
              <mxPoint x="550" y="240" />
            </Array>
          </mxGeometry>
        </mxCell>
        <mxCell id="to3WtLk7SZaPc5Sqz7QV-47" value="" style="edgeStyle=orthogonalEdgeStyle;rounded=0;orthogonalLoop=1;jettySize=auto;html=1;entryX=0.542;entryY=0;entryDx=0;entryDy=0;exitX=0.5;exitY=1;exitDx=0;exitDy=0;entryPerimeter=0;fontSize=15;" parent="1" source="to3WtLk7SZaPc5Sqz7QV-30" target="to3WtLk7SZaPc5Sqz7QV-11" edge="1">
          <mxGeometry relative="1" as="geometry">
            <mxPoint x="489.28999999999996" y="190" as="sourcePoint" />
            <mxPoint x="489.28999999999996" y="270" as="targetPoint" />
            <Array as="points">
              <mxPoint x="550" y="230" />
              <mxPoint x="350" y="230" />
            </Array>
          </mxGeometry>
        </mxCell>
        <mxCell id="vjmSQW3fSpuoPHMXwD8e-1" value="" style="edgeStyle=orthogonalEdgeStyle;rounded=0;orthogonalLoop=1;jettySize=auto;html=1;exitX=0.5;exitY=1;exitDx=0;exitDy=0;entryX=0.5;entryY=0;entryDx=0;entryDy=0;fontSize=15;" parent="1" source="to3WtLk7SZaPc5Sqz7QV-23" target="vjmSQW3fSpuoPHMXwD8e-2" edge="1">
          <mxGeometry relative="1" as="geometry">
            <mxPoint x="414.17" y="340" as="sourcePoint" />
            <mxPoint x="550" y="420" as="targetPoint" />
            <Array as="points" />
          </mxGeometry>
        </mxCell>
        <mxCell id="vjmSQW3fSpuoPHMXwD8e-2" value="HEC-HMS&amp;nbsp;" style="shape=parallelogram;perimeter=parallelogramPerimeter;whiteSpace=wrap;html=1;fixedSize=1;fontSize=15;" parent="1" vertex="1">
          <mxGeometry x="460" y="390" width="180" height="60" as="geometry" />
        </mxCell>
        <mxCell id="vjmSQW3fSpuoPHMXwD8e-3" value="" style="edgeStyle=orthogonalEdgeStyle;rounded=0;orthogonalLoop=1;jettySize=auto;html=1;exitX=1;exitY=0.5;exitDx=0;exitDy=0;entryX=0;entryY=0.5;entryDx=0;entryDy=0;fontSize=15;" parent="1" source="vjmSQW3fSpuoPHMXwD8e-2" target="to3WtLk7SZaPc5Sqz7QV-24" edge="1">
          <mxGeometry relative="1" as="geometry">
            <mxPoint x="510" y="500" as="sourcePoint" />
            <mxPoint x="510" y="590" as="targetPoint" />
            <Array as="points" />
          </mxGeometry>
        </mxCell>
        <mxCell id="vjmSQW3fSpuoPHMXwD8e-17" value="" style="edgeStyle=orthogonalEdgeStyle;rounded=0;orthogonalLoop=1;jettySize=auto;html=1;exitX=0.5;exitY=1;exitDx=0;exitDy=0;fontSize=15;" parent="1" source="vjmSQW3fSpuoPHMXwD8e-4" target="vjmSQW3fSpuoPHMXwD8e-16" edge="1">
          <mxGeometry relative="1" as="geometry">
            <Array as="points">
              <mxPoint x="780" y="700" />
              <mxPoint x="210" y="700" />
            </Array>
          </mxGeometry>
        </mxCell>
        <mxCell id="vjmSQW3fSpuoPHMXwD8e-4" value="2D RAS-MAPPER" style="shape=parallelogram;perimeter=parallelogramPerimeter;whiteSpace=wrap;html=1;fixedSize=1;fontSize=15;" parent="1" vertex="1">
          <mxGeometry x="690" y="390" width="180" height="60" as="geometry" />
        </mxCell>
        <mxCell id="vjmSQW3fSpuoPHMXwD8e-5" value="" style="edgeStyle=orthogonalEdgeStyle;rounded=0;orthogonalLoop=1;jettySize=auto;html=1;exitX=0.5;exitY=1;exitDx=0;exitDy=0;entryX=0.5;entryY=0;entryDx=0;entryDy=0;fontSize=15;" parent="1" source="to3WtLk7SZaPc5Sqz7QV-24" target="vjmSQW3fSpuoPHMXwD8e-4" edge="1">
          <mxGeometry relative="1" as="geometry">
            <mxPoint x="640" y="460" as="sourcePoint" />
            <mxPoint x="720" y="310" as="targetPoint" />
            <Array as="points">
              <mxPoint x="780" y="330" />
            </Array>
          </mxGeometry>
        </mxCell>
        <mxCell id="vjmSQW3fSpuoPHMXwD8e-6" value="LSTM (RNN)" style="shape=parallelogram;perimeter=parallelogramPerimeter;whiteSpace=wrap;html=1;fixedSize=1;fontSize=15;" parent="1" vertex="1">
          <mxGeometry x="-60" y="670" width="120" height="60" as="geometry" />
        </mxCell>
        <mxCell id="vjmSQW3fSpuoPHMXwD8e-7" value="" style="edgeStyle=orthogonalEdgeStyle;rounded=0;orthogonalLoop=1;jettySize=auto;html=1;entryX=0;entryY=0.5;entryDx=0;entryDy=0;exitX=0.5;exitY=1;exitDx=0;exitDy=0;entryPerimeter=0;fontSize=15;" parent="1" source="vjmSQW3fSpuoPHMXwD8e-8" target="to3WtLk7SZaPc5Sqz7QV-29" edge="1">
          <mxGeometry relative="1" as="geometry">
            <mxPoint x="-369.94" y="300" as="targetPoint" />
            <Array as="points">
              <mxPoint x="-380" y="810" />
            </Array>
            <mxPoint x="-369.94" y="210" as="sourcePoint" />
          </mxGeometry>
        </mxCell>
        <mxCell id="vjmSQW3fSpuoPHMXwD8e-9" value="" style="edgeStyle=orthogonalEdgeStyle;rounded=0;orthogonalLoop=1;jettySize=auto;html=1;entryX=0.5;entryY=0;entryDx=0;entryDy=0;exitX=0.5;exitY=1;exitDx=0;exitDy=0;entryPerimeter=0;fontSize=15;" parent="1" source="to3WtLk7SZaPc5Sqz7QV-26" target="vjmSQW3fSpuoPHMXwD8e-8" edge="1">
          <mxGeometry relative="1" as="geometry">
            <mxPoint x="-375" y="350" as="targetPoint" />
            <Array as="points" />
            <mxPoint x="-380" y="190" as="sourcePoint" />
          </mxGeometry>
        </mxCell>
        <mxCell id="vjmSQW3fSpuoPHMXwD8e-8" value="Wawancara" style="shape=parallelogram;perimeter=parallelogramPerimeter;whiteSpace=wrap;html=1;fixedSize=1;fontSize=15;" parent="1" vertex="1">
          <mxGeometry x="-440" y="240" width="120" height="60" as="geometry" />
        </mxCell>
        <mxCell id="vjmSQW3fSpuoPHMXwD8e-10" value="Data Prediktif" style="strokeWidth=2;html=1;shape=mxgraph.flowchart.terminator;whiteSpace=wrap;fontSize=15;" parent="1" vertex="1">
          <mxGeometry x="-60" y="780" width="120" height="60" as="geometry" />
        </mxCell>
        <mxCell id="vjmSQW3fSpuoPHMXwD8e-11" value="" style="edgeStyle=orthogonalEdgeStyle;rounded=0;orthogonalLoop=1;jettySize=auto;html=1;exitX=0.5;exitY=1;exitDx=0;exitDy=0;entryX=0.496;entryY=-0.033;entryDx=0;entryDy=0;entryPerimeter=0;fontSize=15;" parent="1" source="vjmSQW3fSpuoPHMXwD8e-6" target="vjmSQW3fSpuoPHMXwD8e-10" edge="1">
          <mxGeometry relative="1" as="geometry">
            <mxPoint y="780" as="targetPoint" />
            <Array as="points" />
            <mxPoint y="799.95" as="sourcePoint" />
          </mxGeometry>
        </mxCell>
        <mxCell id="vjmSQW3fSpuoPHMXwD8e-14" value="Data Curah Hujan&amp;nbsp;" style="strokeWidth=2;html=1;shape=mxgraph.flowchart.terminator;whiteSpace=wrap;fontSize=15;" parent="1" vertex="1">
          <mxGeometry x="295" y="510" width="100" height="60" as="geometry" />
        </mxCell>
        <mxCell id="vjmSQW3fSpuoPHMXwD8e-15" value="" style="edgeStyle=orthogonalEdgeStyle;rounded=0;orthogonalLoop=1;jettySize=auto;html=1;exitX=0.5;exitY=1;exitDx=0;exitDy=0;entryX=0.496;entryY=-0.033;entryDx=0;entryDy=0;entryPerimeter=0;fontSize=15;" parent="1" source="to3WtLk7SZaPc5Sqz7QV-32" target="vjmSQW3fSpuoPHMXwD8e-14" edge="1">
          <mxGeometry relative="1" as="geometry">
            <mxPoint x="340" y="545" as="targetPoint" />
            <Array as="points" />
            <mxPoint x="340" y="495" as="sourcePoint" />
          </mxGeometry>
        </mxCell>
        <mxCell id="vjmSQW3fSpuoPHMXwD8e-16" value="Limpasan Air Banjir" style="strokeWidth=2;html=1;shape=mxgraph.flowchart.terminator;whiteSpace=wrap;fontSize=15;" parent="1" vertex="1">
          <mxGeometry x="135" y="780" width="150" height="60" as="geometry" />
        </mxCell>
        <mxCell id="vjmSQW3fSpuoPHMXwD8e-18" value="" style="edgeStyle=orthogonalEdgeStyle;rounded=0;orthogonalLoop=1;jettySize=auto;html=1;entryX=0.5;entryY=1;entryDx=0;entryDy=0;exitX=1;exitY=0.5;exitDx=0;exitDy=0;exitPerimeter=0;fontSize=15;" parent="1" source="vjmSQW3fSpuoPHMXwD8e-14" target="vjmSQW3fSpuoPHMXwD8e-2" edge="1">
          <mxGeometry relative="1" as="geometry">
            <mxPoint x="510" y="530" as="sourcePoint" />
            <mxPoint x="510" y="620" as="targetPoint" />
            <Array as="points">
              <mxPoint x="550" y="540" />
            </Array>
          </mxGeometry>
        </mxCell>
        <mxCell id="vjmSQW3fSpuoPHMXwD8e-19" value="" style="edgeStyle=orthogonalEdgeStyle;rounded=0;orthogonalLoop=1;jettySize=auto;html=1;exitX=0.5;exitY=1;exitDx=0;exitDy=0;exitPerimeter=0;entryX=0.5;entryY=0;entryDx=0;entryDy=0;fontSize=15;" parent="1" source="vjmSQW3fSpuoPHMXwD8e-10" target="vjmSQW3fSpuoPHMXwD8e-21" edge="1">
          <mxGeometry relative="1" as="geometry">
            <mxPoint x="80" y="930" as="sourcePoint" />
            <mxPoint x="100" y="880" as="targetPoint" />
          </mxGeometry>
        </mxCell>
        <mxCell id="vjmSQW3fSpuoPHMXwD8e-20" value="" style="edgeStyle=orthogonalEdgeStyle;rounded=0;orthogonalLoop=1;jettySize=auto;html=1;exitX=0.5;exitY=1;exitDx=0;exitDy=0;exitPerimeter=0;entryX=0.5;entryY=0;entryDx=0;entryDy=0;fontSize=15;" parent="1" source="vjmSQW3fSpuoPHMXwD8e-16" target="vjmSQW3fSpuoPHMXwD8e-21" edge="1">
          <mxGeometry relative="1" as="geometry">
            <mxPoint x="110" y="860" as="sourcePoint" />
            <mxPoint x="100" y="880" as="targetPoint" />
          </mxGeometry>
        </mxCell>
        <mxCell id="vjmSQW3fSpuoPHMXwD8e-21" value="Klasifikasi&amp;nbsp;&lt;div style=&quot;font-size: 15px;&quot;&gt;Kerawanan&lt;/div&gt;" style="shape=parallelogram;perimeter=parallelogramPerimeter;whiteSpace=wrap;html=1;fixedSize=1;fontSize=15;" parent="1" vertex="1">
          <mxGeometry x="40" y="880" width="120" height="60" as="geometry" />
        </mxCell>
        <mxCell id="bsytHQjZ32K1ERyn3rT7-1" value="" style="edgeStyle=orthogonalEdgeStyle;rounded=0;orthogonalLoop=1;jettySize=auto;html=1;entryX=0.5;entryY=0;entryDx=0;entryDy=0;exitX=0.5;exitY=1;exitDx=0;exitDy=0;fontSize=15;" edge="1" parent="1" target="to3WtLk7SZaPc5Sqz7QV-32">
          <mxGeometry relative="1" as="geometry">
            <mxPoint x="344.17" y="330" as="sourcePoint" />
            <mxPoint x="344.17" y="420" as="targetPoint" />
            <Array as="points" />
          </mxGeometry>
        </mxCell>
        <mxCell id="to3WtLk7SZaPc5Sqz7QV-32" value="Kalibrasi" style="shape=parallelogram;perimeter=parallelogramPerimeter;whiteSpace=wrap;html=1;fixedSize=1;fontSize=15;" parent="1" vertex="1">
          <mxGeometry x="285" y="390" width="120" height="60" as="geometry" />
        </mxCell>
        <mxCell id="bsytHQjZ32K1ERyn3rT7-2" value="" style="shape=parallelogram;perimeter=parallelogramPerimeter;whiteSpace=wrap;html=1;fixedSize=1;fontSize=15;" vertex="1" parent="1">
          <mxGeometry x="940" y="340" width="120" height="60" as="geometry" />
        </mxCell>
        <mxCell id="bsytHQjZ32K1ERyn3rT7-3" value="" style="rounded=1;whiteSpace=wrap;html=1;fontSize=15;" vertex="1" parent="1">
          <mxGeometry x="940" y="420" width="120" height="60" as="geometry" />
        </mxCell>
        <mxCell id="bsytHQjZ32K1ERyn3rT7-6" value="" style="strokeWidth=2;html=1;shape=mxgraph.flowchart.terminator;whiteSpace=wrap;fontSize=15;" vertex="1" parent="1">
          <mxGeometry x="950" y="500" width="100" height="60" as="geometry" />
        </mxCell>
        <mxCell id="bsytHQjZ32K1ERyn3rT7-10" value="Proses" style="text;html=1;align=center;verticalAlign=middle;whiteSpace=wrap;rounded=0;fontSize=20;" vertex="1" parent="1">
          <mxGeometry x="1105" y="355" width="60" height="30" as="geometry" />
        </mxCell>
        <mxCell id="bsytHQjZ32K1ERyn3rT7-11" value="Input" style="text;html=1;align=center;verticalAlign=middle;whiteSpace=wrap;rounded=0;fontSize=20;" vertex="1" parent="1">
          <mxGeometry x="1105" y="435" width="60" height="30" as="geometry" />
        </mxCell>
        <mxCell id="bsytHQjZ32K1ERyn3rT7-12" value="Output" style="text;html=1;align=center;verticalAlign=middle;whiteSpace=wrap;rounded=0;fontSize=20;" vertex="1" parent="1">
          <mxGeometry x="1105" y="515" width="60" height="30" as="geometry" />
        </mxCell>
        <mxCell id="bsytHQjZ32K1ERyn3rT7-13" value="" style="rounded=0;whiteSpace=wrap;html=1;fontSize=15;" vertex="1" parent="1">
          <mxGeometry x="940" y="260" width="120" height="60" as="geometry" />
        </mxCell>
        <mxCell id="bsytHQjZ32K1ERyn3rT7-14" value="Pokok Bahasan" style="text;html=1;align=center;verticalAlign=middle;whiteSpace=wrap;rounded=0;fontSize=20;" vertex="1" parent="1">
          <mxGeometry x="1105" y="275" width="60" height="30" as="geometry" />
        </mxCell>
        <mxCell id="bsytHQjZ32K1ERyn3rT7-15" value="Keterangan" style="text;html=1;align=center;verticalAlign=middle;whiteSpace=wrap;rounded=0;fontSize=20;" vertex="1" parent="1">
          <mxGeometry x="960" y="200" width="60" height="30" as="geometry" />
        </mxCell>
      </root>
    </mxGraphModel>
  </diagram>
</mxfile>
